<svg width="512" height="512" viewBox="0 0 512 512" fill="none" xmlns="http://www.w3.org/2000/svg">
<path d="M256 512C397.385 512 512 397.385 512 256C512 114.615 397.385 0 256 0C114.615 0 0 114.615 0 256C0 397.385 114.615 512 256 512Z" fill="#5865F2"/>
<path d="M366.894 154.219C346.498 144.86 324.626 137.966 301.759 134.017C301.342 133.94 300.926 134.131 300.712 134.512C297.899 139.515 294.783 146.041 292.601 151.171C268.005 147.489 243.536 147.489 219.444 151.171C217.262 145.927 214.033 139.515 211.208 134.512C210.993 134.144 210.577 133.953 210.161 134.017C187.305 137.953 165.434 144.848 145.026 154.219C144.849 154.295 144.698 154.422 144.597 154.587C103.112 216.565 91.7473 277.02 97.3224 336.725C97.3476 337.017 97.5116 337.297 97.7386 337.474C125.109 357.575 151.623 369.778 177.644 377.866C178.06 377.993 178.501 377.841 178.766 377.498C184.922 369.092 190.409 360.229 195.113 350.908C195.391 350.363 195.126 349.715 194.558 349.499C185.855 346.198 177.568 342.172 169.596 337.601C168.966 337.233 168.915 336.331 169.495 335.9C171.173 334.643 172.851 333.335 174.453 332.014C174.743 331.773 175.146 331.722 175.487 331.874C227.857 355.785 284.554 355.785 336.306 331.874C336.647 331.709 337.051 331.76 337.353 332.001C338.955 333.322 340.633 334.643 342.323 335.9C342.903 336.331 342.865 337.233 342.235 337.601C334.263 342.261 325.976 346.198 317.26 349.486C316.693 349.702 316.44 350.363 316.718 350.908C321.523 360.216 327.01 369.079 333.052 377.485C333.304 377.841 333.758 377.993 334.175 377.866C360.322 369.778 386.835 357.575 414.206 337.474C414.446 337.297 414.597 337.03 414.622 336.738C421.294 267.712 403.447 207.753 367.31 154.6C367.221 154.422 367.07 154.295 366.894 154.219ZM202.934 300.371C187.167 300.371 174.175 285.896 174.175 268.119C174.175 250.341 186.915 235.866 202.934 235.866C219.078 235.866 231.944 250.469 231.692 268.119C231.692 285.896 218.952 300.371 202.934 300.371ZM309.263 300.371C293.497 300.371 280.505 285.896 280.505 268.119C280.505 250.341 293.244 235.866 309.263 235.866C325.408 235.866 338.274 250.469 338.022 268.119C338.022 285.896 325.408 300.371 309.263 300.371Z" fill="white"/>
</svg>
